<?xml version="1.0" encoding="UTF-8" ?>
<!DOCTYPE svg PUBLIC "-//W3C//DTD SVG 1.1//EN" "http://www.w3.org/Graphics/SVG/1.1/DTD/svg11.dtd">
<svg width="635pt" height="634pt" viewBox="0 0 635 634" version="1.1" xmlns="http://www.w3.org/2000/svg">
<g id="#ffffffff">
</g>
<g id="#47b013ff">
<path fill="#47b013" opacity="1.00" d=" M 579.24 59.28 C 582.41 111.73 575.52 170.33 552.01 220.01 C 527.57 273.70 481.80 315.15 430.03 342.05 C 378.14 370.79 320.70 387.05 264.33 404.40 C 214.21 420.29 161.09 434.28 120.26 469.26 C 86.10 501.53 73.88 551.28 76.95 596.80 C 60.64 599.27 43.03 598.97 26.20 600.92 C 22.95 592.49 26.10 582.08 26.15 573.01 C 32.17 514.81 59.14 454.91 111.08 424.10 C 174.27 386.01 249.18 376.84 319.06 357.17 C 368.62 344.19 417.90 327.25 461.09 299.13 C 508.44 269.04 544.11 221.79 560.04 168.01 C 570.07 135.28 574.86 101.05 575.94 66.91 C 556.44 84.76 532.36 96.56 507.72 105.56 C 433.21 131.62 354.07 139.55 278.10 160.17 C 221.98 175.46 162.73 197.29 126.12 245.15 C 102.97 274.67 94.19 313.22 95.03 350.14 C 138.00 316.57 190.23 298.07 242.01 283.09 C 297.38 266.34 354.39 253.68 407.06 229.13 C 439.14 214.72 468.21 193.55 491.07 166.87 C 465.38 207.37 423.32 234.71 380.17 254.21 C 336.63 273.78 290.96 287.95 246.63 305.54 C 198.09 324.92 150.32 348.80 112.02 385.03 C 93.39 401.65 78.38 421.82 64.24 442.26 C 61.20 404.28 55.90 366.01 60.96 327.97 C 66.76 273.96 95.98 222.72 141.35 192.37 C 197.35 154.64 265.20 141.40 330.68 130.61 C 396.12 119.52 463.46 114.51 526.08 91.07 C 545.58 83.77 563.66 73.03 579.24 59.28 Z" />
</g>
</svg>
