<?xml version="1.0" encoding="UTF-8" ?>
<!DOCTYPE svg PUBLIC "-//W3C//DTD SVG 1.1//EN" "http://www.w3.org/Graphics/SVG/1.1/DTD/svg11.dtd">
<svg width="512pt" height="512pt" viewBox="0 0 512 512" version="1.1" xmlns="http://www.w3.org/2000/svg">
<g id="#69af58ff">
<path fill="#69af58" opacity="1.00" d=" M 0.00 0.00 L 0.02 0.00 C 0.01 0.02 0.00 0.06 0.00 0.08 L 0.00 0.00 Z" />
<path fill="#69af58" opacity="1.00" d=" M 145.40 21.63 C 163.55 24.95 181.53 29.56 198.86 35.94 C 214.63 42.19 231.16 49.42 241.86 63.17 C 248.17 70.96 250.18 82.39 245.35 91.43 C 244.51 87.54 242.26 84.01 238.68 82.13 C 227.24 75.30 216.26 67.73 204.60 61.30 C 193.31 53.89 182.32 46.01 170.74 39.06 C 161.86 33.91 153.61 27.76 145.40 21.63 Z" />
</g>
<g id="#539b43ff">
<path fill="#539b43" opacity="1.00" d=" M 144.24 21.31 L 145.40 21.63 C 153.61 27.76 161.86 33.91 170.74 39.06 C 182.32 46.01 193.31 53.89 204.60 61.30 C 216.26 67.73 227.24 75.30 238.68 82.13 C 242.26 84.01 244.51 87.54 245.35 91.43 C 245.14 91.92 244.71 92.90 244.50 93.39 C 247.68 96.64 250.66 100.08 253.80 103.37 C 253.00 105.53 252.19 107.67 251.39 109.83 C 246.78 105.93 242.66 101.50 238.17 97.47 C 217.35 101.61 195.92 95.78 177.18 86.70 C 164.31 80.37 154.71 68.58 149.87 55.21 C 145.74 44.42 144.21 32.81 144.24 21.31 Z" />
</g>
<g id="#904b1fff">
<path fill="#904b1f" opacity="1.00" d=" M 265.99 80.02 C 270.15 75.10 276.44 71.39 283.05 71.87 C 287.46 71.99 290.77 76.94 289.01 81.05 C 286.56 89.56 277.35 92.76 272.27 99.31 C 263.09 110.55 258.44 124.64 254.55 138.41 L 255.48 138.24 C 252.47 142.20 252.83 147.55 251.56 152.17 C 251.12 153.80 250.59 155.40 250.08 157.00 C 246.09 156.98 242.04 157.36 238.14 156.31 C 238.75 153.94 239.35 151.58 239.91 149.20 C 240.82 145.24 241.84 141.31 242.91 137.39 C 245.36 128.09 248.11 118.87 251.39 109.83 C 252.19 107.67 253.00 105.53 253.80 103.37 C 256.89 95.16 260.47 86.92 265.99 80.02 Z" />
</g>
<g id="#ef3e40ff">
<path fill="#ef3e40" opacity="1.00" d=" M 118.91 127.11 C 142.64 118.87 168.51 117.55 193.10 122.40 C 210.20 125.61 226.49 131.85 242.91 137.39 C 241.84 141.31 240.82 145.24 239.91 149.20 C 224.62 144.47 209.68 138.46 193.96 135.18 C 171.90 130.66 148.42 130.38 126.96 137.78 C 131.99 137.95 136.98 137.17 142.00 136.99 C 160.71 137.42 179.51 141.26 196.27 149.77 C 216.71 160.48 239.19 166.51 261.66 171.26 C 282.49 175.38 303.69 178.53 324.97 177.92 C 332.76 177.72 340.64 176.86 347.90 173.87 C 355.22 170.90 363.22 170.51 371.03 170.71 C 384.63 171.05 398.89 175.46 408.29 185.73 C 414.46 192.47 416.27 202.11 414.92 210.95 C 412.02 231.30 401.73 249.93 388.58 265.46 C 368.56 289.03 340.59 305.04 310.86 312.87 C 295.62 317.12 279.83 319.10 264.05 319.63 C 255.36 320.53 246.68 319.35 237.99 319.20 C 230.66 319.00 223.42 317.78 216.17 316.80 C 187.74 312.75 159.60 306.57 130.97 303.95 C 123.87 303.23 116.62 303.15 109.64 304.76 C 102.29 306.59 96.34 312.07 92.48 318.42 C 87.89 326.79 87.04 336.60 87.05 345.98 C 87.46 375.76 98.22 404.70 114.60 429.32 C 119.15 436.32 124.55 442.70 130.09 448.93 C 134.32 453.68 138.44 458.77 144.10 461.91 C 157.61 469.28 172.15 475.21 187.44 477.52 C 207.76 479.78 227.94 474.81 247.36 469.36 C 252.42 467.94 257.30 470.62 262.16 471.69 C 279.73 476.00 297.97 479.96 316.12 477.21 C 352.03 470.14 384.18 448.19 406.09 419.16 C 426.66 392.23 438.23 359.60 445.63 326.83 C 450.76 302.36 453.20 277.21 451.37 252.23 C 449.85 228.53 444.45 204.76 433.27 183.69 C 426.87 171.70 418.01 161.00 407.25 152.70 C 397.57 145.66 386.14 141.70 374.78 138.31 C 358.52 133.80 341.47 132.25 324.66 133.66 C 305.50 135.31 287.00 140.92 268.86 147.02 C 263.17 149.01 257.32 150.46 251.56 152.17 C 252.83 147.55 252.47 142.20 255.48 138.24 C 264.77 135.80 273.73 132.26 282.95 129.56 C 299.19 124.55 316.05 121.29 333.07 120.79 C 352.65 120.26 372.27 123.70 390.62 130.50 C 400.36 133.91 409.63 138.73 417.66 145.25 C 433.62 158.14 444.59 176.24 451.77 195.26 C 461.06 220.04 464.39 246.70 464.16 273.05 C 463.35 314.92 453.65 356.64 435.75 394.51 C 418.55 430.26 389.81 460.85 353.68 477.77 C 338.97 484.54 323.20 489.67 306.95 490.61 C 287.90 490.86 269.19 486.37 250.89 481.49 C 235.81 485.30 220.57 489.26 204.95 490.30 C 186.01 492.11 167.30 486.34 150.14 478.85 C 124.55 467.30 102.10 449.04 85.27 426.59 C 66.89 402.52 55.40 373.98 47.42 344.97 C 38.07 310.23 34.59 273.65 39.37 237.91 C 42.07 218.64 47.16 199.56 55.93 182.12 C 63.12 168.05 72.61 154.93 85.00 144.99 C 94.94 136.77 106.80 131.30 118.91 127.11 M 129.30 158.41 C 111.14 161.55 94.07 173.21 86.38 190.23 C 81.05 201.66 81.10 215.62 87.21 226.74 C 93.62 238.71 105.05 247.05 116.93 253.07 C 132.71 260.67 149.78 265.30 167.05 267.96 C 187.48 271.49 208.54 272.30 229.04 268.89 C 249.95 265.56 270.45 256.67 285.43 241.43 C 293.77 232.30 301.06 220.68 300.49 207.85 C 300.48 200.96 295.07 195.38 289.04 192.84 C 278.33 188.17 266.40 188.77 254.98 188.29 C 237.44 188.12 219.65 187.40 202.73 182.36 C 193.65 179.53 184.87 175.79 176.34 171.60 C 161.79 164.32 146.17 155.69 129.30 158.41 Z" />
</g>
<g id="#dd363eff">
<path fill="#dd363e" opacity="1.00" d=" M 126.96 137.78 C 148.42 130.38 171.90 130.66 193.96 135.18 C 209.68 138.46 224.62 144.47 239.91 149.20 C 239.35 151.58 238.75 153.94 238.14 156.31 C 242.04 157.36 246.09 156.98 250.08 157.00 C 250.59 155.40 251.12 153.80 251.56 152.17 C 257.32 150.46 263.17 149.01 268.86 147.02 C 287.00 140.92 305.50 135.31 324.66 133.66 C 341.47 132.25 358.52 133.80 374.78 138.31 C 386.14 141.70 397.57 145.66 407.25 152.70 C 418.01 161.00 426.87 171.70 433.27 183.69 C 444.45 204.76 449.85 228.53 451.37 252.23 C 453.20 277.21 450.76 302.36 445.63 326.83 C 438.23 359.60 426.66 392.23 406.09 419.16 C 384.18 448.19 352.03 470.14 316.12 477.21 C 297.97 479.96 279.73 476.00 262.16 471.69 C 257.30 470.62 252.42 467.94 247.36 469.36 C 227.94 474.81 207.76 479.78 187.44 477.52 C 172.15 475.21 157.61 469.28 144.10 461.91 C 138.44 458.77 134.32 453.68 130.09 448.93 C 124.55 442.70 119.15 436.32 114.60 429.32 C 98.22 404.70 87.46 375.76 87.05 345.98 C 87.04 336.60 87.89 326.79 92.48 318.42 C 96.34 312.07 102.29 306.59 109.64 304.76 C 116.62 303.15 123.87 303.23 130.97 303.95 C 159.60 306.57 187.74 312.75 216.17 316.80 C 223.42 317.78 230.66 319.00 237.99 319.20 C 246.68 319.35 255.36 320.53 264.05 319.63 C 279.83 319.10 295.62 317.12 310.86 312.87 C 340.59 305.04 368.56 289.03 388.58 265.46 C 401.73 249.93 412.02 231.30 414.92 210.95 C 416.27 202.11 414.46 192.47 408.29 185.73 C 398.89 175.46 384.63 171.05 371.03 170.71 C 363.22 170.51 355.22 170.90 347.90 173.87 C 340.64 176.86 332.76 177.72 324.97 177.92 C 303.69 178.53 282.49 175.38 261.66 171.26 C 239.19 166.51 216.71 160.48 196.27 149.77 C 179.51 141.26 160.71 137.42 142.00 136.99 C 136.98 137.17 131.99 137.95 126.96 137.78 Z" />
</g>
<g id="#f9676eff">
<path fill="#f9676e" opacity="1.00" d=" M 129.30 158.41 C 146.17 155.69 161.79 164.32 176.34 171.60 C 184.87 175.79 193.65 179.53 202.73 182.36 C 219.65 187.40 237.44 188.12 254.98 188.29 C 266.40 188.77 278.33 188.17 289.04 192.84 C 295.07 195.38 300.48 200.96 300.49 207.85 C 301.06 220.68 293.77 232.30 285.43 241.43 C 270.45 256.67 249.95 265.56 229.04 268.89 C 208.54 272.30 187.48 271.49 167.05 267.96 C 149.78 265.30 132.71 260.67 116.93 253.07 C 105.05 247.05 93.62 238.71 87.21 226.74 C 81.10 215.62 81.05 201.66 86.38 190.23 C 94.07 173.21 111.14 161.55 129.30 158.41 Z" />
</g>
</svg>
