<?xml version="1.0" encoding="UTF-8" ?>
<!DOCTYPE svg PUBLIC "-//W3C//DTD SVG 1.1//EN" "http://www.w3.org/Graphics/SVG/1.1/DTD/svg11.dtd">
<svg width="512pt" height="512pt" viewBox="0 0 512 512" version="1.1" xmlns="http://www.w3.org/2000/svg">
<g id="#333333ff">
<path fill="#333333" opacity="1.00" d=" M 254.37 0.00 L 258.42 0.00 C 271.41 0.63 284.48 1.78 297.08 5.18 C 341.07 15.76 380.10 45.03 402.89 84.07 C 426.43 123.32 432.66 172.30 420.32 216.32 C 408.83 258.43 380.30 295.59 342.58 317.55 C 298.75 343.89 242.73 348.49 195.10 329.95 C 153.85 314.41 119.30 282.03 101.06 241.90 C 81.81 200.61 80.37 151.45 96.98 109.04 C 112.54 68.35 144.50 34.27 184.07 16.04 C 205.97 5.63 230.18 0.57 254.37 0.00 M 141.90 227.56 C 158.01 259.88 188.09 285.08 223.11 294.29 C 249.99 301.56 279.28 299.64 304.95 288.79 C 333.08 277.05 356.46 254.77 370.10 227.57 C 294.03 227.56 217.97 227.56 141.90 227.56 Z" />
<path fill="#333333" opacity="1.00" d=" M 80.21 410.22 C 102.06 390.81 129.19 378.31 157.23 370.78 C 166.28 375.27 175.40 379.71 184.96 383.03 C 218.96 395.39 256.19 398.58 291.82 392.37 C 313.81 388.69 334.97 380.98 354.75 370.78 C 387.35 379.38 418.69 395.23 441.98 420.00 C 466.49 445.37 481.45 478.33 490.72 512.00 L 21.28 512.00 C 25.99 495.65 31.49 479.46 39.23 464.27 C 49.38 443.93 63.06 425.21 80.21 410.22 Z" />
</g>
</svg>
